HIERARCHY
ROOT Hips
{
	OFFSET 0.000000 0.000000 0.000000
	CHANNELS 6 Xposition Yposition Zposition Zrotation Yrotation Xrotation 
	JOINT LHipJoint
	{
		OFFSET 0.000000 0.000000 0.000000
		CHANNELS 3 Zrotation Yrotation Xrotation
		JOINT LeftUpLeg
		{
			OFFSET 1.363060 -1.794630 0.839290
			CHANNELS 3 Zrotation Yrotation Xrotation
			JOINT LeftLeg
			{
				OFFSET 2.448110 -6.726130 0.000000
				CHANNELS 3 Zrotation Yrotation Xrotation
				JOINT LeftFoot
				{
					OFFSET 2.562200 -7.039590 0.000000
					CHANNELS 3 Zrotation Yrotation Xrotation
					JOINT LeftToeBase
					{
						OFFSET 0.157640 -0.433110 2.322550
						CHANNELS 3 Zrotation Yrotation Xrotation
						End Site
						{
							OFFSET 0.000000 0.000000 0.000000
						}
					}
				}
			}
		}
	}
	JOINT RHipJoint
	{
		OFFSET 0.000000 0.000000 0.000000
		CHANNELS 3 Zrotation Yrotation Xrotation
		JOINT RightUpLeg
		{
			OFFSET -1.305520 -1.794630 0.839290
			CHANNELS 3 Zrotation Yrotation Xrotation
			JOINT RightLeg
			{
				OFFSET -2.542530 -6.985550 0.000000
				CHANNELS 3 Zrotation Yrotation Xrotation
				JOINT RightFoot
				{
					OFFSET -2.568260 -7.056230 0.000000
					CHANNELS 3 Zrotation Yrotation Xrotation
					JOINT RightToeBase
					{
						OFFSET -0.164730 -0.452590 2.363150
						CHANNELS 3 Zrotation Yrotation Xrotation
						End Site
						{
							OFFSET 0.000000 0.000000 0.000000
						}
					}
				}
			}
		}
	}
}
MOTION
Frames: 25
Frame Time: 0.008333
2.078325 16.693980 2.784278 12.549725 -42.877716 18.278625 -7.620552 -0.327464 6.833963 -1.986614 -19.280462 -47.590917 -2.142898 -0.713109 11.627284 0.276659 5.203785 12.935507 2.692000 0.000001 -60.942100 13.621621 0.578652 -5.399875 -7.702484 -40.749973 -10.093663 2.186467 0.797358 -6.988249 -3.274590 -23.498286 16.069584 -10.702199 0.000000 -72.903400
2.085668 16.672348 2.804255 12.207186 -42.675314 18.727528 -7.595147 -0.330591 6.961362 -1.496494 -19.648757 -48.230100 -2.032101 -0.685818 12.233169 0.338954 5.366435 12.366346 2.695500 0.000000 -60.974100 13.580263 0.546377 -5.403791 -7.322332 -40.527377 -10.142302 2.185587 0.830613 -6.984348 -3.338731 -23.911672 15.697700 -10.787300 0.000000 -72.616100
2.095567 16.652535 2.828840 11.809226 -42.478000 19.226442 -7.581019 -0.320818 7.116304 -0.918244 -20.046831 -48.917545 -1.904723 -0.655789 12.844628 0.408318 5.546961 11.812612 2.702100 -0.000000 -61.001000 13.520971 0.501039 -5.397564 -6.868514 -40.255875 -10.193669 2.182327 0.876477 -7.033501 -3.437918 -24.408165 15.413026 -10.917699 0.000000 -72.258500
2.107929 16.634311 2.855672 11.376559 -42.289733 19.748918 -7.571687 -0.302335 7.280824 -0.291769 -20.451509 -49.629296 -1.767623 -0.623487 13.468623 0.481175 5.736406 11.283135 2.710100 0.000001 -61.030700 13.456078 0.447657 -5.384022 -6.377991 -39.945923 -10.231723 2.174436 0.932083 -7.141855 -3.574303 -24.959667 15.213483 -11.074900 0.000000 -71.862500
2.122420 16.617833 2.883006 10.933536 -42.118565 20.271651 -7.565469 -0.281926 7.438560 0.347615 -20.842947 -50.339742 -1.626633 -0.589913 14.099617 0.555263 5.932871 10.789286 2.720600 0.000000 -61.065100 13.389381 0.395106 -5.368935 -5.883077 -39.617672 -10.272283 2.164441 0.989574 -7.259677 -3.737597 -25.515451 15.065898 -11.227300 0.000000 -71.452500
2.138392 16.603421 2.909619 10.495331 -41.961884 20.782540 -7.560963 -0.268415 7.576125 0.970194 -21.200734 -51.026746 -1.488074 -0.557245 14.728768 0.627427 6.130948 10.340684 2.733600 0.000000 -61.103500 13.310867 0.368076 -5.347573 -5.405884 -39.253235 -10.503412 2.157546 1.009802 -6.951202 -3.825693 -26.053285 14.698822 -11.369400 -0.000000 -71.057500
2.155410 16.591347 2.935032 10.058738 -41.849780 21.288123 -7.563431 -0.261511 7.685396 1.558696 -21.485502 -51.687527 -1.354549 -0.524148 15.355134 0.694732 6.310297 9.936335 2.742400 -0.000000 -61.148000 13.234435 0.342682 -5.312462 -4.933366 -38.806697 -10.756044 2.137482 1.025623 -6.625560 -3.923427 -26.630835 14.372203 -11.544500 0.000000 -70.644700
2.172359 16.581598 2.957884 9.670819 -41.783357 21.737914 -7.564635 -0.262194 7.764505 2.071930 -21.720418 -52.271032 -1.233518 -0.494921 15.938005 0.759246 6.500815 9.587188 2.759800 0.000000 -61.184500 13.164926 0.335334 -5.283332 -4.531991 -38.390706 -11.053582 2.121511 1.025787 -6.191010 -4.012189 -27.099643 14.024447 -11.650000 -0.000001 -70.344500
2.188886 16.574154 2.978680 9.309782 -41.774419 22.155187 -7.570666 -0.269665 7.812021 2.507686 -21.869302 -52.789889 -1.126326 -0.467725 16.486967 0.816544 6.668903 9.279939 2.773400 0.000001 -61.216400 13.100496 0.335215 -5.249462 -4.170649 -37.958785 -11.382279 2.105250 1.016500 -5.703179 -4.094146 -27.491781 13.678044 -11.713100 0.000000 -69.938300
2.204620 16.568804 2.997358 8.978108 -41.829816 22.542856 -7.583859 -0.284356 7.825556 2.858196 -21.923842 -53.239951 -1.034762 -0.442386 16.992427 0.865573 6.807038 9.008674 2.780600 -0.000000 -61.240300 13.042388 0.339714 -5.198988 -3.850817 -37.448301 -11.710089 2.072877 1.003631 -5.230206 -4.183501 -27.919570 13.400755 -11.821399 -0.000000 -69.722200
2.219308 16.565004 3.014083 8.681066 -41.939794 22.885113 -7.601528 -0.303007 7.811682 3.115921 -21.895945 -53.609525 -0.960885 -0.419154 17.449710 0.905782 6.912182 8.760939 2.779500 0.000000 -61.252300 12.988253 0.352217 -5.148952 -3.586824 -36.955801 -12.055306 2.045962 0.981983 -4.702136 -4.259108 -28.231396 13.101563 -11.858501 0.000000 -69.381200
2.233179 16.562316 3.029439 8.400715 -42.103903 23.205623 -7.628266 -0.325381 7.770777 3.296014 -21.776648 -53.917423 -0.902705 -0.396081 17.866921 0.935680 6.966979 8.524223 2.763000 -0.000000 -61.256500 12.938031 0.362931 -5.079087 -3.354239 -36.370364 -12.362775 1.999217 0.964095 -4.245823 -4.345376 -28.624455 12.894171 -11.976600 0.000000 -69.241501
2.246152 16.559919 3.043223 8.163464 -42.297289 23.462657 -7.654131 -0.347155 7.714928 3.386860 -21.611647 -54.145539 -0.862350 -0.374799 18.238296 0.957436 6.989781 8.290400 2.737000 -0.000000 -61.241901 12.891741 0.384744 -5.022699 -3.194124 -35.880240 -12.684322 1.968315 0.935371 -3.706965 -4.409388 -28.852663 12.641177 -11.987500 0.000001 -69.081900
2.258799 16.557345 3.056669 7.930021 -42.513617 23.703129 -7.687420 -0.368882 7.645234 3.427819 -21.385649 -54.333586 -0.833808 -0.351776 18.589800 0.968995 6.953570 8.043965 2.690500 -0.000001 -61.223300 12.846263 0.400444 -4.955062 -3.052911 -35.339093 -12.948488 1.925062 0.913567 -3.251047 -4.478754 -29.139111 12.451812 -12.056000 -0.000000 -68.991500
2.271252 16.553859 3.069666 7.724134 -42.728314 23.895496 -7.718985 -0.387249 7.573847 3.417219 -21.146703 -54.477957 -0.816799 -0.328431 18.923651 0.973609 6.881747 7.781956 2.631601 0.000000 -61.192100 12.802402 0.421263 -4.901919 -2.960241 -34.895371 -13.204611 1.896013 0.886210 -2.752082 -4.530384 -29.308476 12.228555 -12.046900 0.000000 -68.906600
2.284092 16.549177 3.082988 7.521698 -42.930757 24.068361 -7.753041 -0.403022 7.503645 3.387903 -20.898736 -54.609093 -0.805561 -0.302650 19.260202 0.971609 6.767251 7.498261 2.557200 0.000000 -61.158900 12.757577 0.437858 -4.851618 -2.883698 -34.472296 -13.410620 1.866495 0.863715 -2.305585 -4.579197 -29.480634 12.023820 -12.046200 0.000000 -68.805201
2.297380 16.542963 3.096896 7.328606 -43.107521 24.220839 -7.786979 -0.415304 7.441357 3.353752 -20.667494 -54.741385 -0.797005 -0.274476 19.609554 0.965499 6.623978 7.193723 2.472400 -0.000000 -61.123900 12.711515 0.452336 -4.809715 -2.822112 -34.100028 -13.577709 1.841241 0.844478 -1.892868 -4.622497 -29.635016 11.822293 -12.036000 0.000000 -68.718100
2.311269 16.535078 3.111474 7.147781 -43.248340 24.352343 -7.818543 -0.423484 7.392550 3.327005 -20.475770 -54.887223 -0.788006 -0.244049 19.980062 0.957906 6.467225 6.871735 2.382501 -0.000000 -61.088100 12.663682 0.466822 -4.783009 -2.775222 -33.812165 -13.719088 1.827208 0.826325 -1.489315 -4.654551 -29.726952 11.589971 -11.977900 0.000001 -68.509700
2.325857 16.525635 3.126870 6.974769 -43.352748 24.477372 -7.849155 -0.428893 7.357904 3.323058 -20.329498 -55.064342 -0.775080 -0.210923 20.379713 0.950714 6.306367 6.538265 2.291399 0.000000 -61.055300 12.613814 0.479357 -4.761982 -2.730292 -33.554742 -13.822113 1.812201 0.814192 -1.144527 -4.688666 -29.855324 11.385597 -11.949400 -0.000000 -68.471600
2.341166 16.514898 3.143127 6.801581 -43.422207 24.608514 -7.880828 -0.432645 7.336780 3.354209 -20.227429 -55.283325 -0.755452 -0.174470 20.815699 0.944953 6.146293 6.198964 2.200800 -0.000000 -61.030399 12.560345 0.487000 -4.742763 -2.674084 -33.297725 -13.878415 1.792887 0.811108 -0.880926 -4.728308 -30.041550 11.205685 -11.960200 -0.000000 -68.437300
2.356549 16.502893 3.159458 6.667718 -43.453740 24.707276 -7.903110 -0.431503 7.335840 3.398453 -20.205825 -55.526068 -0.731390 -0.138237 21.270396 0.945052 6.023431 5.866258 2.123300 -0.000000 -61.000100 12.508590 0.503856 -4.747256 -2.647948 -33.178691 -13.954284 1.794148 0.801993 -0.564113 -4.748317 -30.092639 10.959088 -11.869600 0.000001 -68.275500
2.372479 16.490326 3.176089 6.535821 -43.463168 24.814865 -7.926160 -0.430161 7.345188 3.475890 -20.225328 -55.808542 -0.699620 -0.099795 21.753554 0.949081 5.920323 5.543510 2.053101 0.000000 -60.977300 12.454685 0.517279 -4.748431 -2.611083 -33.034363 -13.992208 1.786554 0.801799 -0.332826 -4.777939 -30.225741 10.757032 -11.840100 0.000000 -68.234200
2.388356 16.477511 3.192444 6.424552 -43.455640 24.912984 -7.945678 -0.427290 7.365047 3.570370 -20.291339 -56.113585 -0.662542 -0.061173 22.250251 0.958433 5.851263 5.238906 1.994901 -0.000000 -60.954901 12.401672 0.532864 -4.755644 -2.582779 -32.924728 -14.023205 1.782512 0.803047 -0.119771 -4.803514 -30.334734 10.545148 -11.792800 -0.000000 -68.117500
2.404253 16.464891 3.208241 6.329232 -43.441911 25.003120 -7.962748 -0.424096 7.390775 3.674952 -20.389120 -56.431112 -0.621398 -0.022978 22.750456 0.972803 5.816282 4.957095 1.948900 -0.000000 -60.931400 12.350212 0.549874 -4.764092 -2.562376 -32.825393 -14.045569 1.778017 0.806330 0.064849 -4.828050 -30.440209 10.340714 -11.746601 0.000000 -67.995600
2.419911 16.452871 3.223174 6.250917 -43.431429 25.083267 -7.977767 -0.421094 7.418543 3.780211 -20.505012 -56.747772 -0.578292 0.013938 23.241853 0.991507 5.813540 4.700990 1.914400 -0.000001 -60.904300 12.301437 0.568254 -4.772224 -2.552425 -32.731097 -14.062125 1.772503 0.810673 0.225497 -4.851119 -30.539129 10.150218 -11.703300 0.000000 -67.879000
